<mxfile host="Electron" agent="Mozilla/5.0 (Windows NT 10.0; Win64; x64) AppleWebKit/537.36 (KHTML, like Gecko) draw.io/28.0.6 Chrome/138.0.7204.100 Electron/37.2.3 Safari/537.36" version="28.0.6">
  <diagram id="3228e29e-7158-1315-38df-8450db1d8a1d" name="Page-1">
    <mxGraphModel dx="1339" dy="964" grid="1" gridSize="10" guides="1" tooltips="1" connect="1" arrows="1" fold="1" page="1" pageScale="1" pageWidth="1169" pageHeight="827" background="none" math="0" shadow="0">
      <root>
        <mxCell id="0" />
        <mxCell id="1" parent="0" />
        <mxCell id="21531" value="" style="ellipse;fillColor=none;opacity=80;strokeColor=#FF8000;html=1;fontColor=#FFFFFF;strokeWidth=3;" parent="1" vertex="1">
          <mxGeometry x="320" y="80" width="400" height="400" as="geometry" />
        </mxCell>
        <mxCell id="21532" value="" style="ellipse;fillColor=none;opacity=80;strokeColor=#00CC00;html=1;fontColor=#FFFFFF;strokeWidth=3;" parent="1" vertex="1">
          <mxGeometry x="385" y="214" width="200" height="200" as="geometry" />
        </mxCell>
        <mxCell id="21534" value="Thiết bị số" style="text;fontSize=24;align=center;verticalAlign=middle;html=1;fontColor=#FF8000;" parent="1" vertex="1">
          <mxGeometry x="425" y="80" width="190" height="70" as="geometry" />
        </mxCell>
        <mxCell id="21536" value="Thiết bị&lt;div&gt;thông minh&lt;/div&gt;" style="text;fontSize=24;align=center;verticalAlign=middle;html=1;fontColor=#00CC00;" parent="1" vertex="1">
          <mxGeometry x="390" y="224" width="190" height="70" as="geometry" />
        </mxCell>
      </root>
    </mxGraphModel>
  </diagram>
</mxfile>
